<svg width="40" height="40" viewBox="0 0 40 40" fill="none" xmlns="http://www.w3.org/2000/svg">
<g clip-path="url(#clip0)">
<path d="M36.0003 19.3333H38.0003C39.1044 19.3321 39.9991 18.4374 40.0003 17.3333C39.9948 16.2311 39.1026 15.3388 38.0003 15.3333H33.8412C34.4295 11.0009 33.4186 7.18967 31.5775 4.99804C28.8363 1.72851 24.8558 0 20.0667 0C20.0532 0 20.0401 0.000859373 20.0266 0.000859373L20.0003 0C19.9579 0 19.9166 0.00374999 19.8743 0.00437499C15.1721 0.0504687 11.2604 1.77273 8.55661 4.99733C5.62474 8.48733 4.79083 15.7793 8.42465 21.9999H4.667C3.56294 22.0011 2.66818 22.8958 2.667 23.9999C2.67247 25.1021 3.56474 25.9944 4.667 25.9999H6.00036C6.36856 25.9999 6.667 26.2984 6.667 26.6665C6.667 27.0346 6.36856 27.3332 6.00036 27.3332H2.00037C0.896304 27.3343 0.0015401 28.2291 0.00036823 29.3331C-0.00353801 29.861 0.20654 30.3678 0.582711 30.7381C0.954429 31.1213 1.46646 31.3362 2.00037 31.3331H14.8228L15.401 32.2967L16.667 35.4617V37.9999C16.6682 39.104 17.5629 39.9988 18.667 39.9999H21.3336C22.4377 39.9988 23.3324 39.104 23.3336 37.9999V35.4619L24.5996 32.2968L26.5719 29.0097C26.5914 28.9741 26.6075 28.9368 26.6201 28.8982L26.8121 28.6972C28.0639 27.4706 29.1881 26.1201 30.1674 24.6666H36.667C37.771 24.6654 38.6658 23.7707 38.6669 22.6666C38.6615 21.5643 37.7692 20.6721 36.667 20.6666H36.0003C35.6321 20.6666 35.3337 20.3682 35.3337 20C35.3337 19.6318 35.6321 19.3333 36.0003 19.3333ZM26.1504 5.52538C27.7536 8.50194 27.7308 14.5814 26.0908 20.664C25.3643 23.2557 24.2627 25.7271 22.8209 27.9999H21.8737C22.3473 25.6493 22.6933 23.2747 22.9102 20.8867C23.4743 14.608 23.471 8.26038 22.9024 5.09116C22.7228 3.90577 22.396 2.74734 21.9297 1.64281C23.7887 2.33765 25.3031 3.73077 26.1504 5.52538ZM19.9767 1.3375C19.9897 1.33742 20.0021 1.33578 20.0151 1.33578C20.1299 1.35883 20.9299 1.65211 21.5899 5.32686C22.14 8.38998 22.1367 14.5951 21.5817 20.7708C21.3609 23.1985 21.0051 25.6119 20.516 28H19.4847C18.9953 25.6107 18.6395 23.1959 18.4186 20.767C17.8639 14.5951 17.8607 8.39006 18.4108 5.32694C18.9821 2.14523 19.7128 1.37906 19.9767 1.3375ZM18.0709 1.64281C17.6046 2.74734 17.2779 3.90577 17.0983 5.09116C16.5296 8.26045 16.5264 14.6081 17.0902 20.8828C17.307 23.2721 17.6531 25.648 18.127 27.9999H17.1798C15.7361 25.7238 14.6335 23.2486 13.9069 20.6529C12.2699 14.5813 12.2471 8.50194 13.8503 5.52538C14.6975 3.73077 16.2119 2.33765 18.0709 1.64281ZM2.00037 29.9999C1.82083 30.0003 1.64912 29.9267 1.52576 29.7962C1.40146 29.6744 1.33209 29.5073 1.33373 29.3333C1.33412 28.9653 1.63232 28.667 2.00037 28.6667H6.00036C7.10489 28.6667 8.00036 27.7712 8.00036 26.6667C8.00036 25.5621 7.10489 24.6667 6.00036 24.6667H4.667C4.48747 24.6671 4.31575 24.5934 4.19239 24.4629C4.0681 24.3411 3.99872 24.174 4.00036 24C4.00075 23.632 4.29896 23.3337 4.667 23.3334H9.2152C11.1029 26.4735 11.6169 27.129 13.466 29.072L14.0228 30.0001L2.00037 29.9999ZM14.2867 27.9999C12.4257 26.0379 12.0441 25.4842 9.64004 21.4453C6.22372 15.707 6.92551 9.01233 9.57785 5.85475C10.9034 4.27905 12.6078 3.06632 14.5309 2.33039C13.7943 3.0921 13.1699 3.95476 12.6764 4.89249C10.8952 8.19975 10.8731 14.522 12.6168 20.9895C13.2927 23.4542 14.3066 25.8134 15.6296 27.9999H14.2867V27.9999ZM16.9851 32.6667H19.3336V34.6667H17.785L16.9851 32.6667ZM22.0003 37.9999C21.9999 38.368 21.7017 38.6663 21.3337 38.6666H18.6671C18.299 38.6662 18.0007 38.368 18.0004 37.9999V35.9999H22.0004V37.9999H22.0003ZM22.2156 34.6667H20.667V32.6667H23.0156L22.2156 34.6667ZM23.6227 31.3333H16.3779L15.1777 29.3333H24.8229L23.6227 31.3333ZM25.8486 27.776L25.6346 28H24.3709C25.6923 25.8169 26.7052 23.4615 27.3808 21.0007C29.1275 14.5222 29.1054 8.19998 27.3242 4.89272C26.8131 3.92101 26.1601 3.03078 25.3867 2.25148C27.3966 2.97789 29.1796 4.22093 30.5563 5.85561C32.9733 8.73256 33.7666 15.1857 30.4759 21.4773C29.3077 23.8276 27.7422 25.9585 25.8486 27.776ZM36.0003 22H36.667C36.8465 21.9996 37.0182 22.0732 37.1416 22.2037C37.2659 22.3255 37.3352 22.4926 37.3336 22.6666C37.3332 23.0346 37.035 23.3329 36.667 23.3332H30.9812C31.199 22.9527 31.4232 22.5436 31.6575 22.0956C32.5569 20.385 33.2148 18.5579 33.6124 16.6665H38.0003C38.1798 16.6661 38.3516 16.7398 38.4749 16.8703C38.5992 16.9921 38.6686 17.1592 38.6669 17.3332C38.6666 17.7012 38.3684 17.9995 38.0003 17.9998H36.0003C34.8958 17.9998 34.0003 18.8952 34.0003 19.9998C34.0003 21.1044 34.8957 22 36.0003 22Z" fill="#404040"/>
</g>
<defs>
<clipPath id="clip0">
<rect width="40" height="40" fill="white"/>
</clipPath>
</defs>
</svg>
