<svg width="40" height="40" viewBox="0 0 40 40" fill="none" xmlns="http://www.w3.org/2000/svg">
<g clip-path="url(#clip0)">
<path d="M29.0852 3.96533H2.25243C1.01039 3.96533 0 4.97572 0 6.21768V22.3158C0 23.5578 1.01039 24.5683 2.25243 24.5683H3.99235V30.5612C3.99235 30.9428 4.2222 31.2869 4.57485 31.433C4.69157 31.4815 4.81423 31.5049 4.93579 31.5049C5.18142 31.5049 5.42267 31.409 5.60321 31.2285L12.2635 24.5683H13.5997C14.1209 24.5683 14.5433 24.1459 14.5433 23.6247C14.5433 23.1035 14.1207 22.6811 13.5997 22.6811C13.5997 22.6811 11.8271 22.6823 11.8085 22.6842C11.5889 22.6991 11.3732 22.7896 11.2053 22.9575L5.87954 28.2832C5.87954 28.2832 5.8779 23.5651 5.87486 23.5406C5.83228 23.0589 5.42821 22.6811 4.93548 22.6811H2.25243C2.05102 22.6811 1.88727 22.5172 1.88727 22.3159V6.21768C1.88727 6.01627 2.0511 5.85252 2.25243 5.85252H29.0852C29.2866 5.85252 29.4504 6.01635 29.4504 6.21768V12.3939C29.4504 12.915 29.8729 13.3375 30.394 13.3375C30.915 13.3375 31.3376 12.915 31.3376 12.3939V6.21768C31.3376 4.97572 30.3272 3.96533 29.0852 3.96533Z" fill="#404040"/>
<path d="M37.7477 15.5073H18.9652C17.7232 15.5073 16.7128 16.5177 16.7128 17.7598V28.7418C16.7128 29.9838 17.7232 30.9942 18.9652 30.9942H30.7241L35.4882 35.7583C35.6687 35.9389 35.9101 36.0347 36.1556 36.0347C36.2772 36.0347 36.3998 36.0112 36.5166 35.9628C36.8691 35.8167 37.0991 35.4728 37.0991 35.091V30.9942H37.7476C38.9895 30.9942 40 29.9838 40 28.7417V17.7597C40.0001 16.5177 38.9897 15.5073 37.7477 15.5073ZM38.1129 28.7418C38.1129 28.9431 37.9491 29.107 37.7477 29.107H36.1559C35.6593 29.107 35.2532 29.4907 35.2159 29.9778C35.2135 29.9984 35.2119 32.813 35.2119 32.813L31.7858 29.3868C31.7823 29.3832 31.7785 29.3799 31.7749 29.3763C31.7615 29.3631 31.7487 29.3517 31.7367 29.3415C31.5706 29.1959 31.3537 29.1069 31.1155 29.1069H18.9652C18.7638 29.1069 18.6 28.9431 18.6 28.7417V17.7597C18.6 17.5583 18.7639 17.3945 18.9652 17.3945H37.7477C37.9491 17.3945 38.1129 17.5583 38.1129 17.7597V28.7418Z" fill="#404040"/>
<path d="M28.3566 22.3071C27.8358 22.3071 27.413 22.7299 27.413 23.2507C27.413 23.7716 27.8358 24.1943 28.3566 24.1943C28.8776 24.1943 29.3002 23.7716 29.3002 23.2507C29.3002 22.7299 28.8775 22.3071 28.3566 22.3071Z" fill="#404040"/>
<path d="M24.2557 10.2041H7.08202C6.56093 10.2041 6.13843 10.6265 6.13843 11.1477C6.13843 11.6689 6.56101 12.0913 7.08202 12.0913H24.2557C24.7767 12.0913 25.1992 11.6689 25.1992 11.1477C25.1992 10.6265 24.7767 10.2041 24.2557 10.2041Z" fill="#404040"/>
<path d="M13.5996 16.4426H7.08202C6.56093 16.4426 6.13843 16.865 6.13843 17.3862C6.13843 17.9074 6.56101 18.3298 7.08202 18.3298H13.5996C14.1208 18.3298 14.5432 17.9074 14.5432 17.3862C14.5432 16.865 14.1207 16.4426 13.5996 16.4426Z" fill="#404040"/>
<path d="M23.9717 22.3071C23.4509 22.3071 23.0281 22.7299 23.0281 23.2507C23.0281 23.7716 23.4509 24.1943 23.9717 24.1943C24.4926 24.1943 24.9153 23.7716 24.9153 23.2507C24.9153 22.7299 24.4926 22.3071 23.9717 22.3071Z" fill="#404040"/>
<path d="M32.7407 22.3071C32.2198 22.3071 31.7971 22.7299 31.7971 23.2507C31.7971 23.7716 32.2198 24.1943 32.7407 24.1943C33.2616 24.1943 33.6842 23.7716 33.6842 23.2507C33.6842 22.7299 33.2615 22.3071 32.7407 22.3071Z" fill="#404040"/>
</g>
<defs>
<clipPath id="clip0">
<rect width="40" height="40" fill="white"/>
</clipPath>
</defs>
</svg>
