<svg width="40" height="40" viewBox="0 0 40 40" fill="none" xmlns="http://www.w3.org/2000/svg">
<path d="M19.3957 36.6486C16.1028 36.6489 12.8838 35.6728 10.1457 33.8436C7.40765 32.0144 5.27349 29.4144 4.01315 26.3723C2.7528 23.3301 2.42287 19.9826 3.06508 16.753C3.70729 13.5233 5.29279 10.5567 7.62108 8.22818C9.94937 5.89966 12.9159 4.31387 16.1454 3.67134C19.375 3.02882 22.7226 3.35842 25.7648 4.61847C28.8071 5.87852 31.4073 8.01242 33.2368 10.7503C35.0662 13.4882 36.0427 16.7071 36.0427 20C36.0381 24.4138 34.2828 28.6455 31.1619 31.7667C28.041 34.8879 23.8095 36.6436 19.3957 36.6486ZM19.3957 4.43565C16.3165 4.43533 13.3064 5.34816 10.746 7.0587C8.18564 8.76923 6.19005 11.2006 5.01163 14.0454C3.8332 16.8902 3.52487 20.0205 4.12563 23.0405C4.72639 26.0605 6.20925 28.8345 8.38667 31.0117C10.5641 33.1889 13.3383 34.6715 16.3583 35.2719C19.3784 35.8724 22.5087 35.5637 25.3534 34.385C28.198 33.2063 30.6292 31.2104 32.3395 28.6499C34.0497 26.0894 34.9622 23.0792 34.9616 20C34.9573 15.8728 33.316 11.9159 30.3978 8.99735C27.4796 6.07885 23.5228 4.43713 19.3957 4.43241V4.43565Z" fill="#404040"/>
<path d="M6.79026 29.9135C5.77428 29.935 4.76113 29.7986 3.78701 29.5092C3.27587 29.3754 2.79746 29.1386 2.38113 28.8132C1.9648 28.4879 1.61933 28.0809 1.36593 27.6173C0.557823 25.9908 1.56431 23.26 2.91999 21.2751C3.0022 21.1601 3.1262 21.0819 3.2654 21.0573C3.40459 21.0326 3.54792 21.0634 3.66464 21.1432C3.78136 21.2229 3.8622 21.3452 3.88983 21.4839C3.91745 21.6225 3.88966 21.7665 3.81242 21.8849C2.46107 23.86 1.82809 26.1173 2.33404 27.1362C2.52572 27.4696 2.78292 27.7607 3.09014 27.9921C3.39735 28.2234 3.74823 28.3901 4.12161 28.4822C7.82863 29.6892 15.3903 27.8541 22.9373 23.9189C33.4951 18.413 39.0454 11.6135 37.6081 8.7173C37.0373 7.56973 35.2297 6.95189 32.6389 7.01351C32.5679 7.01525 32.4973 7.00299 32.431 6.97744C32.3648 6.95188 32.3042 6.91352 32.2528 6.86456C32.149 6.76567 32.0886 6.62958 32.0851 6.48622C32.0816 6.34286 32.1352 6.20397 32.2341 6.10012C32.333 5.99626 32.4691 5.93594 32.6124 5.93243C35.6822 5.85784 37.8016 6.67351 38.5762 8.23568C40.5119 12.1308 33.8622 19.44 23.4367 24.8768C17.2973 28.0784 11.0859 29.9135 6.79026 29.9135Z" fill="#404040"/>
<path d="M34.2983 9.06152C34.2181 9.06152 34.1389 9.04367 34.0664 9.00927C33.994 8.97486 33.9301 8.92476 33.8794 8.8626L32.2069 6.81449C32.1606 6.75776 32.1262 6.6922 32.1059 6.62178C32.0857 6.55136 32.08 6.47756 32.0891 6.40486C32.0983 6.33216 32.1221 6.26207 32.1592 6.19887C32.1963 6.13567 32.2458 6.08066 32.3048 6.0372L34.4821 4.43233C34.5393 4.3902 34.6042 4.35974 34.6731 4.3427C34.7421 4.32566 34.8137 4.32237 34.8839 4.33301C34.9541 4.34365 35.0216 4.36802 35.0824 4.40472C35.1432 4.44143 35.1962 4.48975 35.2383 4.54692C35.2804 4.6041 35.3109 4.66902 35.3279 4.73797C35.345 4.80691 35.3483 4.87854 35.3376 4.94877C35.327 5.01899 35.3026 5.08642 35.2659 5.14723C35.2292 5.20803 35.1809 5.26101 35.1237 5.30314L33.4053 6.57071L34.7183 8.17882C34.7831 8.25802 34.824 8.35397 34.8364 8.45552C34.8488 8.55707 34.8321 8.66005 34.7883 8.75249C34.7445 8.84494 34.6753 8.92305 34.5889 8.97776C34.5024 9.03246 34.4022 9.06151 34.2999 9.06152H34.2983Z" fill="#404040"/>
<path d="M18.7952 30.973C18.4315 30.9746 18.0711 30.9035 17.7352 30.7638C16.5201 30.2481 15.8082 29.08 15.3233 28.1206L15.2909 28.0568C15.0006 27.4795 14.7001 26.8822 14.2217 26.7098C14.0537 26.658 13.8803 26.6259 13.705 26.6141C13.5274 26.5979 13.351 26.5706 13.1768 26.5325C12.2347 26.3162 11.4255 25.58 10.7098 24.2779L10.5093 23.8995C10.2047 23.183 9.74157 22.545 9.15468 22.0335C8.97129 21.9059 8.7635 21.8176 8.54435 21.774C8.3252 21.7305 8.09942 21.7327 7.88117 21.7806C7.76777 21.8017 7.66058 21.8481 7.56757 21.9163C7.47455 21.9845 7.39809 22.0728 7.34387 22.1746C7.12766 22.6108 7.36279 23.1676 7.63252 23.813C7.93576 24.5379 8.28117 25.3595 7.98657 26.2044C7.56171 27.4168 6.08766 27.8319 4.85144 27.6135C4.73248 27.5933 4.62273 27.5367 4.53739 27.4514C4.45594 27.3657 4.4048 27.2558 4.39182 27.1383C4.37883 27.0208 4.4047 26.9023 4.46547 26.8009C4.52625 26.6996 4.61857 26.6209 4.7283 26.577C4.83804 26.5331 4.95914 26.5264 5.07306 26.5579C5.83522 26.6806 6.74495 26.4779 6.96495 25.8514C7.12225 25.3984 6.88549 24.8325 6.63468 24.233C6.31036 23.4573 5.94225 22.5779 6.3736 21.7C6.49707 21.4576 6.67251 21.2454 6.88741 21.0785C7.10231 20.9116 7.35137 20.7942 7.61684 20.7346C7.9874 20.6484 8.37202 20.6417 8.74536 20.7149C9.11869 20.7881 9.47227 20.9397 9.78279 21.1595C10.5115 21.7619 11.0878 22.5277 11.465 23.3946L11.659 23.7584C12.2158 24.7719 12.7941 25.3352 13.4228 25.4784C13.5553 25.5066 13.6894 25.5268 13.8244 25.5389C14.0866 25.5582 14.3453 25.6099 14.5947 25.693C15.4741 26.0108 15.9087 26.8752 16.2585 27.5692L16.2898 27.6325C16.6914 28.4271 17.2671 29.3887 18.159 29.7676C18.3827 29.8566 18.6224 29.8983 18.863 29.8899C19.1036 29.8815 19.3399 29.8233 19.5568 29.7189C19.6893 29.66 19.8073 29.5728 19.9025 29.4634C19.9978 29.3541 20.068 29.2253 20.1082 29.086C20.2395 28.5584 19.9039 27.9741 19.5487 27.3562C19.4406 27.166 19.3298 26.9779 19.2331 26.7871C18.6555 25.6014 18.4867 24.2578 18.7532 22.9661C19.0197 21.6744 19.7063 20.5073 20.706 19.6471C20.8001 19.5708 20.8963 19.4968 20.9925 19.4227C21.2606 19.243 21.4968 19.0197 21.6914 18.7622C21.896 18.3359 21.991 17.8653 21.9677 17.393C21.9759 17.069 22.0063 16.7459 22.0585 16.426C22.1603 15.9581 22.3116 15.5024 22.5098 15.0665C22.7038 14.6567 22.8411 14.2225 22.9179 13.7757C22.9337 13.5697 22.9022 13.3627 22.8258 13.1707C22.7495 12.9787 22.6303 12.8066 22.4774 12.6676C22.4251 12.614 22.3589 12.5762 22.2862 12.5582C22.2135 12.5403 22.1373 12.5429 22.066 12.566C21.8305 12.6966 21.6347 12.8886 21.4995 13.1216C21.2751 13.4679 20.9756 13.7592 20.6233 13.9741C20.3316 14.1148 20.0172 14.2023 19.6947 14.2325C18.3505 14.417 17.0073 14.6044 15.665 14.7946C14.0077 15.0265 12.9374 14.6827 12.4844 13.7703C12.2933 13.3012 12.2293 12.7899 12.299 12.2881C12.3379 11.7476 12.4401 10.3135 13.5671 9.88868C14.4795 9.55192 15.3239 10.1373 15.9395 10.5644L16.0585 10.6465C16.792 11.1552 18.1287 11.5611 18.6731 10.8206C18.7195 10.7552 18.7623 10.6773 18.806 10.6C18.9085 10.3985 19.0402 10.2132 19.1968 10.0503C19.6075 9.71609 20.1178 9.52818 20.6471 9.51624C20.7255 9.50705 20.8033 9.49786 20.8801 9.48651C21.3372 9.45593 21.7819 9.32417 22.1819 9.10075C22.5819 8.87733 22.9273 8.56783 23.1931 8.19462C23.7055 7.36543 23.7336 6.11354 23.265 4.66867C23.2384 4.60006 23.2261 4.52675 23.2288 4.45322C23.2316 4.37969 23.2493 4.3075 23.2809 4.24106C23.3126 4.17462 23.3574 4.11534 23.4128 4.06685C23.4681 4.01836 23.5328 3.98168 23.6028 3.95905C23.6728 3.93643 23.7467 3.92833 23.8199 3.93527C23.8932 3.9422 23.9643 3.96402 24.0288 3.99939C24.0933 4.03475 24.1499 4.08291 24.1952 4.14093C24.2404 4.19895 24.2734 4.26559 24.292 4.33678C24.692 5.5757 24.9855 7.34922 24.1104 8.76327C23.7648 9.27301 23.3093 9.69872 22.7774 10.009C22.2454 10.3193 21.6506 10.5063 21.0368 10.5562C20.9477 10.5692 20.8612 10.5795 20.7741 10.5898C20.4806 10.5891 20.1929 10.6721 19.945 10.8292C19.8664 10.9211 19.7996 11.0224 19.746 11.1308C19.6856 11.2424 19.6192 11.3507 19.5471 11.4552C18.6201 12.7168 16.7423 12.4373 15.4423 11.5368L15.3217 11.4535C14.8314 11.1135 14.3255 10.7627 13.9423 10.9022C13.6244 11.0227 13.4374 11.5006 13.3763 12.3616C13.3286 12.6736 13.3549 12.9925 13.4531 13.2925C13.7287 13.8476 14.7266 13.833 15.5131 13.7249C16.8536 13.5357 18.2006 13.3465 19.5417 13.1622C19.7381 13.1469 19.9306 13.0992 20.1114 13.0211C20.32 12.8754 20.4974 12.6894 20.6331 12.4741C20.8875 12.0573 21.267 11.7314 21.7174 11.5427C21.9609 11.4609 22.2216 11.4441 22.4737 11.4938C22.7258 11.5436 22.9605 11.6583 23.1547 11.8265C23.4494 12.0804 23.679 12.4012 23.8243 12.7621C23.9696 13.1229 24.0264 13.5133 23.9898 13.9006C23.9045 14.4474 23.742 14.9794 23.5071 15.4806C23.3392 15.8472 23.2093 16.2301 23.1195 16.6233C23.077 16.8952 23.0525 17.1697 23.046 17.4449C23.069 18.1065 22.9152 18.7624 22.6006 19.3449C22.341 19.7106 22.0188 20.0276 21.6487 20.2811C21.5612 20.3487 21.4741 20.4152 21.3898 20.4844C20.5765 21.184 20.0179 22.1333 19.8013 23.1841C19.5847 24.2348 19.7223 25.3277 20.1925 26.2919C20.2828 26.4687 20.3833 26.6427 20.4839 26.8179C20.9098 27.5579 21.3925 28.3968 21.1558 29.3471C21.0791 29.6389 20.9391 29.9102 20.7457 30.1418C20.5524 30.3734 20.3103 30.5596 20.0368 30.6871C19.6504 30.8765 19.2256 30.9743 18.7952 30.973Z" fill="#404040"/>
<path d="M31.7399 30.881C31.6368 30.8809 31.5359 30.8512 31.4491 30.7956C30.4621 30.1643 29.8069 28.8151 30.4188 27.6513C30.6063 27.3218 30.8453 27.0245 31.1269 26.7707C31.2388 26.6594 31.3513 26.5491 31.4513 26.4302C31.6134 26.2367 31.6302 26.121 31.6253 26.1005C31.5432 26.0532 31.4502 26.0281 31.3554 26.0276C31.2606 26.0271 31.1674 26.0513 31.0848 26.0978C30.5261 26.3272 29.902 26.3405 29.334 26.1352C28.766 25.9299 28.2947 25.5206 28.0118 24.987C27.882 24.6931 27.8195 24.3739 27.8289 24.0527C27.8382 23.7316 27.9192 23.4166 28.0659 23.1307C28.1926 22.8581 28.3795 22.6178 28.6125 22.4278C28.8456 22.2378 29.1187 22.1032 29.4113 22.034C29.6837 21.9822 29.9614 21.964 30.2383 21.9799C30.4706 22.005 30.7056 21.9808 30.928 21.9091C31.0721 21.8087 31.1889 21.6738 31.2678 21.5169C31.3467 21.3599 31.3852 21.1858 31.3799 21.0102C31.4154 20.7613 31.3891 20.5074 31.3032 20.271C31.2173 20.0347 31.0745 19.8231 30.8875 19.6551C30.5756 19.3849 30.2354 19.1493 29.8729 18.9524C29.6718 18.8329 29.4669 18.7113 29.2659 18.5783C29.1578 18.507 29.0653 18.4507 28.9826 18.401C28.2875 17.9805 28.094 17.6643 28.2367 16.5043C28.3506 15.7997 28.6312 15.1325 29.055 14.5583C29.1253 14.4502 29.1972 14.3351 29.2713 14.2183C30.3059 12.527 30.3248 11.2399 30.3523 9.46156C30.3556 9.22156 30.3594 8.97507 30.3659 8.72102C30.3666 8.64974 30.3816 8.57934 30.4101 8.51399C30.4385 8.44863 30.4798 8.38966 30.5315 8.34056C30.5832 8.29146 30.6442 8.25323 30.7109 8.22815C30.7776 8.20307 30.8487 8.19163 30.9199 8.19453C31.0632 8.19821 31.1991 8.25865 31.2979 8.36255C31.3966 8.46645 31.45 8.6053 31.4464 8.74859C31.4404 8.99886 31.4367 9.24156 31.4334 9.47778C31.4059 11.2826 31.3826 12.8416 30.1945 14.7843C30.1199 14.907 30.0442 15.0253 29.9702 15.1421C29.635 15.5811 29.4098 16.0939 29.3134 16.6378C29.2611 16.8579 29.2545 17.0864 29.294 17.3091C29.3722 17.3734 29.4563 17.4301 29.5453 17.4783C29.6399 17.5351 29.7459 17.5999 29.8659 17.6794C30.0502 17.801 30.241 17.914 30.4286 18.0253C30.8593 18.2605 31.2626 18.543 31.6307 18.8675C31.9318 19.1448 32.1638 19.4888 32.3082 19.8718C32.4526 20.2549 32.5053 20.6664 32.4621 21.0735C32.4658 21.446 32.3674 21.8124 32.1774 22.1329C31.9875 22.4534 31.7133 22.7157 31.3848 22.8913C31.0152 23.0385 30.6162 23.0968 30.2199 23.0616C30.0276 23.0492 29.8345 23.0587 29.6442 23.0897C29.5107 23.1251 29.3868 23.1902 29.2819 23.2802C29.177 23.3701 29.0937 23.4826 29.0383 23.6091C28.9642 23.7498 28.922 23.905 28.9146 24.0638C28.9072 24.2226 28.9349 24.3811 28.9956 24.528C29.1584 24.8087 29.4167 25.0214 29.7234 25.1273C30.0301 25.2331 30.3646 25.2252 30.6659 25.1048C30.9684 24.954 31.3123 24.9073 31.6441 24.9722C31.9758 25.037 32.2769 25.2096 32.5004 25.4632C32.6302 25.6394 32.9983 26.2799 32.2815 27.1286C32.161 27.2718 32.0269 27.4059 31.8923 27.5394C31.6925 27.7164 31.5204 27.9225 31.3821 28.1507C31.0713 28.7426 31.4696 29.5248 32.0356 29.887C32.134 29.95 32.2093 30.0433 32.2503 30.1527C32.2912 30.2622 32.2956 30.382 32.2627 30.4942C32.2298 30.6063 32.1615 30.7048 32.0679 30.7748C31.9743 30.8449 31.8606 30.8827 31.7437 30.8826L31.7399 30.881Z" fill="#404040"/>
<path d="M24.5947 35.7839C24.4675 35.7838 24.3445 35.7389 24.2472 35.657C24.1499 35.5752 24.0846 35.4616 24.0628 35.3364C24.0151 35.0611 23.9165 34.7971 23.7719 34.558C23.4019 33.9842 22.8726 33.5307 22.2487 33.2531C21.8744 33.0466 21.4511 32.9454 21.0238 32.9602C20.4191 33.0914 19.8571 33.3724 19.3892 33.7775C18.6325 34.311 17.7801 34.918 16.7287 34.7088C16.4148 34.6351 16.1125 34.5185 15.8303 34.3623L13.7498 33.3353C13.6206 33.2601 13.4762 33.2148 13.3272 33.2026C13.1782 33.1905 13.0284 33.2118 12.8887 33.265C12.6974 33.3666 12.5294 33.507 12.3954 33.6771C12.2614 33.8472 12.1643 34.0434 12.1103 34.2531C12.0928 34.3253 12.0606 34.393 12.0157 34.4522C11.9709 34.5113 11.9143 34.5606 11.8496 34.5969C11.7849 34.6332 11.7133 34.6558 11.6395 34.6633C11.5656 34.6708 11.491 34.663 11.4203 34.6403C11.3496 34.6177 11.2843 34.5808 11.2285 34.5318C11.1727 34.4829 11.1276 34.4229 11.096 34.3558C11.0644 34.2886 11.0469 34.2157 11.0448 34.1415C11.0426 34.0673 11.0557 33.9934 11.0833 33.9245C11.1825 33.5655 11.3576 33.2321 11.5967 32.9465C11.8357 32.661 12.1333 32.4301 12.4692 32.2694C12.752 32.1542 13.0569 32.1031 13.3618 32.1199C13.6667 32.1368 13.9641 32.221 14.2325 32.3667L16.3195 33.3991C16.5158 33.5098 16.7257 33.5944 16.9438 33.651C17.5347 33.7699 18.1071 33.364 18.7676 32.8942C19.3857 32.373 20.1305 32.0242 20.9265 31.8829C21.5513 31.8466 22.1738 31.9844 22.7249 32.2807C23.5357 32.6495 24.2211 33.2471 24.6968 34.0002C24.9111 34.354 25.0578 34.7446 25.1292 35.1521C25.1415 35.222 25.1399 35.2937 25.1245 35.363C25.109 35.4324 25.0801 35.498 25.0392 35.5561C24.9984 35.6142 24.9466 35.6638 24.8866 35.7018C24.8266 35.7399 24.7598 35.7658 24.6898 35.778C24.6583 35.7825 24.6265 35.7844 24.5947 35.7839Z" fill="#404040"/>
</svg>
