<svg width="40" height="26" viewBox="0 0 40 26" fill="none" xmlns="http://www.w3.org/2000/svg">
<path d="M39.9557 12.936L36.1975 2.22808C36.0686 1.86074 35.6889 1.64449 35.3071 1.72074L31.3927 2.50378L24.5126 0.457152C23.5196 0.161686 22.4314 -0.0140157 21.2044 0.694494L19.9782 1.40246L18.752 0.694494C17.5249 -0.0140157 16.4367 0.161764 15.4437 0.45723L8.58808 2.49667L5.02865 1.55777C4.64162 1.45574 4.23975 1.66277 4.09842 2.03737L0.0504095 12.7665C-0.0846676 13.1245 0.0593937 13.5276 0.390719 13.7188L3.75608 15.6618C3.51734 16.217 3.47155 16.8334 3.63108 17.4288C3.81866 18.129 4.266 18.7132 4.89061 19.0738C5.3856 19.3596 5.93458 19.4706 6.4652 19.4265C6.48716 20.3401 6.97036 21.2218 7.818 21.7112C8.60503 22.1657 9.52776 22.1788 10.2976 21.828C10.5175 22.3607 10.908 22.8278 11.4446 23.1375C12.0692 23.4981 12.7988 23.5935 13.4991 23.4058C13.7048 23.3506 13.9007 23.2731 14.0837 23.1751C14.3162 23.6761 14.695 24.0924 15.1813 24.3731C15.6068 24.6187 16.0717 24.7354 16.5308 24.7354C17.1807 24.7353 17.8186 24.501 18.3158 24.0679L20.6908 25.4391C21.1161 25.6846 21.5811 25.8013 22.0402 25.8013C22.9769 25.8013 23.8891 25.3156 24.3901 24.4477C24.5975 24.0885 24.713 23.7011 24.7439 23.3128C25.3093 23.5665 25.9408 23.6174 26.5502 23.4542C27.2504 23.2665 27.8346 22.8192 28.1952 22.1945C28.4437 21.764 28.5602 21.293 28.5574 20.8286C29.6003 20.9518 30.6674 20.4596 31.225 19.4937C31.4385 19.1239 31.5547 18.7239 31.5813 18.3239C32.7867 18.75 34.1663 18.2705 34.8283 17.124C35.1155 16.6266 35.2265 16.0749 35.1807 15.5419L39.4925 13.9263C39.8907 13.7771 40.0965 13.3371 39.9557 12.936ZM5.67193 17.7208C5.40873 17.5688 5.21998 17.3216 5.14037 17.0244C5.06068 16.7274 5.1006 16.4189 5.25263 16.1556L6.34341 14.2663C6.49536 14.0031 6.74262 13.8142 7.03973 13.7347C7.33676 13.6551 7.64535 13.695 7.90847 13.847C8.45472 14.1624 8.64323 14.8636 8.32878 15.4104L7.23637 17.3024C7.23629 17.3026 7.23621 17.3026 7.23613 17.3028C6.91989 17.8487 6.21825 18.0362 5.67193 17.7208ZM10.1644 19.9387C9.84846 20.4857 9.14667 20.6739 8.59933 20.3581C8.05222 20.0422 7.86418 19.3401 8.17988 18.7931L8.58839 18.0856C8.58847 18.0855 8.58855 18.0854 8.58862 18.0853L9.6819 16.1917C9.68197 16.1916 9.68213 16.1914 9.68221 16.1912L9.6826 16.1905C9.68268 16.1904 9.68268 16.1904 9.68276 16.1903L10.6472 14.5197C10.7992 14.2565 11.0464 14.0677 11.3434 13.9881C11.6406 13.9085 11.949 13.9485 12.2123 14.1005C12.4755 14.2524 12.6643 14.4997 12.7439 14.7967C12.8235 15.0938 12.7837 15.4023 12.6316 15.6655L12.3441 16.1634C12.3435 16.1643 12.343 16.1652 12.3425 16.166C12.3424 16.1661 12.3424 16.1662 12.3423 16.1663L10.4535 19.4379C10.4535 19.438 10.4535 19.438 10.4535 19.4381L10.4533 19.4383C10.4532 19.4385 10.453 19.4388 10.4529 19.439L10.1644 19.9387ZM13.791 21.3651C13.6391 21.6282 13.3919 21.817 13.0948 21.8966C12.7976 21.9762 12.4891 21.9363 12.2259 21.7843C11.6795 21.4688 11.4912 20.7678 11.8057 20.2209L11.8065 20.2196C11.8066 20.2195 11.8066 20.2194 11.8066 20.2194C11.8068 20.2192 11.8069 20.2189 11.807 20.2186L13.6953 16.9479C13.6955 16.9476 13.6956 16.9475 13.6957 16.9473C14.0116 16.4002 14.7137 16.212 15.2608 16.528C15.524 16.6799 15.7127 16.9272 15.7924 17.2242C15.872 17.5212 15.8322 17.8298 15.6801 18.093L15.2811 18.784C15.2811 18.7841 15.281 18.7843 15.2809 18.7844L14.1902 20.6735C14.1902 20.6736 14.1901 20.6736 14.1901 20.6737C14.1896 20.6745 14.1891 20.6753 14.1887 20.6761L13.791 21.3651ZM15.9627 23.0199C15.6995 22.868 15.5107 22.6207 15.4311 22.3237C15.3515 22.0267 15.3913 21.7182 15.5433 21.4549L16.6342 19.5655C16.9501 19.0185 17.6518 18.8303 18.1993 19.1461C18.7463 19.462 18.9344 20.1641 18.6186 20.7112L17.5278 22.6007C17.2119 23.1478 16.5098 23.3359 15.9627 23.0199ZM23.0372 23.6667C22.7212 24.2138 22.019 24.4017 21.4721 24.086L19.2239 22.788L19.9717 21.4925C20.1101 21.2528 20.2074 21.0005 20.2661 20.7438L22.618 22.1017C22.618 22.1017 22.618 22.1017 22.6181 22.1017C22.6182 22.1017 22.6182 22.1017 22.6183 22.1018L22.6205 22.1031C23.1655 22.4197 23.3526 23.1205 23.0372 23.6667ZM34.6062 14.0886C34.4001 13.8277 34.1423 13.6006 33.8372 13.4246C33.5516 13.2596 32.5131 12.6356 30.6627 11.5167C30.2935 11.2934 29.8132 11.4117 29.5899 11.781C29.3667 12.1502 29.485 12.6305 29.8542 12.8537C31.7138 13.9781 32.7611 14.6075 33.0559 14.7777C33.603 15.0936 33.7912 15.7957 33.4753 16.3428C33.1594 16.89 32.4571 17.078 31.9102 16.7623L30.2364 15.7958C30.236 15.7955 30.2354 15.7952 30.2349 15.7949L30.2346 15.7948L24.0173 12.2053C23.6436 11.9894 23.1659 12.1175 22.9502 12.4912C22.7344 12.8649 22.8624 13.3427 23.2361 13.5584L29.4528 17.1476C29.4528 17.1476 29.453 17.1477 29.4531 17.1478C29.4532 17.1479 29.4532 17.1479 29.4534 17.148L29.455 17.1489C30.0003 17.4654 30.1873 18.1664 29.872 18.7126C29.556 19.2597 28.8542 19.4479 28.307 19.132L27.2068 18.4969C27.2061 18.4965 27.2055 18.4961 27.2049 18.4957L27.2046 18.4956L21.7466 15.3444C21.3727 15.1285 20.8951 15.2566 20.6794 15.6303C20.4636 16.004 20.5917 16.4818 20.9653 16.6975L26.4229 19.8484C26.423 19.8485 26.4231 19.8485 26.4232 19.8486C26.97 20.1645 27.1579 20.8664 26.8422 21.4135C26.6902 21.6767 26.4429 21.8654 26.1459 21.945C25.849 22.0246 25.5403 21.9848 25.2771 21.8328L23.4023 20.7504C23.4014 20.7499 23.4006 20.7494 23.3996 20.7488L23.3994 20.7487L19.9565 18.7609C19.7274 18.3718 19.3985 18.0346 18.9803 17.7931C18.4815 17.5051 17.9286 17.3943 17.394 17.4412C17.3873 17.2338 17.3566 17.0255 17.3014 16.8198C17.1139 16.1196 16.6665 15.5354 16.0418 15.1748C15.5051 14.8649 14.905 14.7602 14.3339 14.8363C14.3193 14.6877 14.2924 14.5394 14.253 14.3922C14.0654 13.692 13.618 13.1078 12.9933 12.7471C11.8476 12.0856 10.4144 12.3593 9.5833 13.3293C9.36026 12.9959 9.05971 12.7074 8.68964 12.4938C8.06503 12.1332 7.33527 12.0378 6.6352 12.2254C5.93497 12.413 5.35084 12.8603 4.99014 13.485L4.5203 14.2988L1.74633 12.6974L5.31146 3.2483L8.40136 4.0633C8.54011 4.09986 8.68604 4.09751 8.82339 4.05673L15.8891 1.9548C16.7112 1.71027 17.2864 1.65261 17.9706 2.04761L18.4155 2.30456L15.6786 3.8847C14.376 4.63681 13.9281 6.30851 14.6802 7.61124C15.4078 8.87146 16.9907 9.31115 18.3621 8.63357C19.0994 8.26936 20.1719 7.78717 20.9802 7.47936C21.5704 7.83491 22.8939 8.63709 23.8388 9.20974C24.2081 9.43349 24.6884 9.31552 24.9119 8.94654C25.1354 8.57756 25.0176 8.09709 24.6487 7.8735C23.7401 7.3228 22.9462 6.84171 22.3784 6.49836C22.0938 6.32633 21.8659 6.18875 21.7088 6.09414C21.3628 5.8861 21.2807 5.83664 21.0609 5.83664C20.9734 5.83664 20.8865 5.85133 20.8038 5.88016C19.8797 6.20226 18.5316 6.80702 17.6701 7.23257C17.0472 7.54007 16.3436 7.3671 16.0334 6.82984C15.7121 6.2732 15.9034 5.55899 16.46 5.23766L21.9856 2.04753C22.6698 1.65246 23.2451 1.71019 24.0671 1.95472L31.1329 4.05666C31.255 4.09298 31.3841 4.09892 31.5089 4.07392L34.9479 3.38596L38.228 12.7315L34.6062 14.0886Z" fill="#404040"/>
<path d="M27.251 9.58301H27.2504C26.819 9.58301 26.4694 9.93277 26.4694 10.3643C26.4694 10.7957 26.8195 11.1455 27.251 11.1455C27.6825 11.1455 28.0322 10.7957 28.0322 10.3643C28.0322 9.93277 27.6824 9.58301 27.251 9.58301Z" fill="#404040"/>
</svg>
