<svg width="40" height="40" viewBox="0 0 40 40" fill="none" xmlns="http://www.w3.org/2000/svg">
<path d="M27.0138 18.263C27.1272 13.2746 25.8048 4.29891 21.1719 2.68125C21.1719 2.44523 21.1719 0.935859 21.1719 1.17188C21.1719 0.524141 20.6477 0 20 0C19.3523 0 18.8281 0.524141 18.8281 1.17188C18.8281 1.40789 18.8281 2.91727 18.8281 2.68125C14.1956 4.29883 12.872 13.2355 12.9862 18.263C14.6088 17.0617 16.7892 16.4903 18.8281 16.3308V36.4844C18.8281 38.423 20.4051 40 22.3438 40C24.2823 40 25.8594 38.423 25.8594 36.4844C25.8594 36.224 25.8594 31.5433 25.8594 31.7969C25.8594 31.1491 25.3352 30.625 24.6875 30.625C24.0398 30.625 23.5156 31.1491 23.5156 31.7969C23.5156 32.0573 23.5156 36.738 23.5156 36.4844C23.5156 37.1309 22.9904 37.6562 22.3438 37.6562C21.6972 37.6562 21.1719 37.131 21.1719 36.4844V16.3307C23.2101 16.4902 25.3909 17.0614 27.0138 18.263Z" fill="#404040"/>
<path d="M2.00039 18.4849C4.69641 15.7889 7.94828 15.7504 10.6453 18.2084C10.5484 12.9009 11.8324 6.10045 16.0089 2.79248C5.84719 4.51982 0 12.118 0 17.6564C0 18.6965 1.2607 19.2247 2.00039 18.4849Z" fill="#404040"/>
<path d="M23.992 2.79248C28.1635 6.09576 29.4518 12.8926 29.3547 18.2083C32.0523 15.7497 35.3042 15.7894 37.9997 18.4847C38.7361 19.2212 40.0001 18.6994 40.0001 17.6562C40.0001 12.0619 34.1151 4.51287 23.992 2.79248Z" fill="#404040"/>
<path d="M8.28125 37.5781C8.92898 37.5781 9.45312 37.054 9.45312 36.4062C9.45312 36.1702 9.45312 34.7825 9.45312 35.0185C10.8292 34.5278 11.7969 33.2291 11.7969 31.7188C11.7969 29.7802 10.2199 28.2031 8.28125 28.2031C7.63469 28.2031 7.10938 27.6779 7.10938 27.0312C7.10992 26.5512 7.44156 26.1747 7.85711 26.0027C8.27266 25.8308 8.77219 25.8634 9.10867 26.2016C9.56531 26.6605 10.3069 26.6605 10.7658 26.2038C11.2241 25.7478 11.2253 25.0051 10.768 24.5467C10.1266 23.903 9.25141 23.5156 8.28125 23.5156C6.34266 23.5156 4.76562 25.0926 4.76562 27.0312C4.76562 28.9698 6.34258 30.5469 8.28125 30.5469C8.92781 30.5469 9.45312 31.0721 9.45312 31.7188C9.45367 32.1988 9.12242 32.5762 8.70672 32.7486C8.29102 32.921 7.79094 32.8884 7.45391 32.5484C6.99484 32.0859 6.2532 32.0932 5.7968 32.5462C5.33844 33.0022 5.33734 33.7449 5.79453 34.2033C6.14859 34.5586 6.59023 34.8377 7.10945 35.0214C7.10945 35.2574 7.10945 36.6423 7.10945 36.4062C7.10938 37.054 7.63352 37.5781 8.28125 37.5781Z" fill="#404040"/>
<path d="M28.2031 27.0312C28.2031 28.9698 29.7801 30.5469 31.7188 30.5469C32.3653 30.5469 32.8906 31.0721 32.8906 31.7188C32.8906 32.1988 32.5591 32.5762 32.1434 32.7486C31.7277 32.921 31.2278 32.8884 30.8914 32.5484C30.4323 32.0859 29.6907 32.0932 29.2343 32.5462C28.7759 33.0022 28.7748 33.7449 29.232 34.2033C29.5861 34.5586 30.0277 34.8377 30.547 35.0214C30.547 35.2574 30.547 36.6423 30.547 36.4062C30.547 37.054 31.0711 37.5781 31.7188 37.5781C32.3666 37.5781 32.8907 37.054 32.8907 36.4062C32.8907 36.1702 32.8907 34.7825 32.8907 35.0185C34.2668 34.5278 35.2345 33.2291 35.2345 31.7188C35.2345 29.7802 33.6575 28.2031 31.7188 28.2031C31.0723 28.2031 30.547 27.6779 30.547 27.0312C30.5481 26.5512 30.8802 26.1747 31.2959 26.0027C31.7116 25.8308 32.2109 25.8634 32.5462 26.2016C33.0028 26.6605 33.7444 26.6605 34.2033 26.2038C34.6616 25.7478 34.6628 25.0051 34.2055 24.5467C33.5641 23.903 32.6889 23.5156 31.7188 23.5156C29.7802 23.5156 28.2031 25.0926 28.2031 27.0312Z" fill="#404040"/>
</svg>
